<mxfile host="app.diagrams.net" agent="Mozilla/5.0 (Windows NT 10.0; Win64; x64) AppleWebKit/537.36 (KHTML, like Gecko) Chrome/129.0.0.0 Safari/537.36" version="24.7.17">
  <diagram name="Halaman-1" id="Y9AolwvZBnAyUHMvJlSv">
    <mxGraphModel dx="1034" dy="446" grid="1" gridSize="10" guides="1" tooltips="1" connect="1" arrows="1" fold="1" page="1" pageScale="1" pageWidth="827" pageHeight="1169" math="0" shadow="0">
      <root>
        <mxCell id="0" />
        <mxCell id="1" parent="0" />
        <mxCell id="kuNX_iD7RCXfwzJ7GgUc-3" value="START" style="rounded=1;whiteSpace=wrap;html=1;fontStyle=4;fontFamily=Verdana;" parent="1" vertex="1">
          <mxGeometry x="358" y="20" width="120" height="60" as="geometry" />
        </mxCell>
        <mxCell id="kuNX_iD7RCXfwzJ7GgUc-6" value="" style="endArrow=classic;html=1;rounded=0;entryX=0.5;entryY=0;entryDx=0;entryDy=0;entryPerimeter=0;" parent="1" source="kuNX_iD7RCXfwzJ7GgUc-3" edge="1">
          <mxGeometry width="50" height="50" relative="1" as="geometry">
            <mxPoint x="430" y="140" as="sourcePoint" />
            <mxPoint x="418" y="120" as="targetPoint" />
          </mxGeometry>
        </mxCell>
        <mxCell id="kuNX_iD7RCXfwzJ7GgUc-9" value="Apakah Nilai &amp;lt;= 0?" style="rhombus;whiteSpace=wrap;html=1;" parent="1" vertex="1">
          <mxGeometry x="361.5" y="700" width="114" height="110" as="geometry" />
        </mxCell>
        <mxCell id="TxdYMe5PBgqj9NSXsRvL-12" style="edgeStyle=orthogonalEdgeStyle;rounded=0;orthogonalLoop=1;jettySize=auto;html=1;entryX=0.5;entryY=0;entryDx=0;entryDy=0;" edge="1" parent="1" source="TxdYMe5PBgqj9NSXsRvL-9" target="kuNX_iD7RCXfwzJ7GgUc-9">
          <mxGeometry relative="1" as="geometry" />
        </mxCell>
        <mxCell id="TxdYMe5PBgqj9NSXsRvL-9" value=" Nilai pada seven segment dikurangi 1" style="rounded=0;whiteSpace=wrap;html=1;" vertex="1" parent="1">
          <mxGeometry x="358.5" y="600" width="120" height="60" as="geometry" />
        </mxCell>
        <mxCell id="TxdYMe5PBgqj9NSXsRvL-13" value="end" style="rounded=1;whiteSpace=wrap;html=1;fontStyle=4;fontFamily=Verdana;" vertex="1" parent="1">
          <mxGeometry x="358.5" y="980" width="120" height="60" as="geometry" />
        </mxCell>
        <mxCell id="TxdYMe5PBgqj9NSXsRvL-14" value="Angka pada seven segment ditampilkan sesuai dengan nilai yang ada." style="strokeWidth=2;html=1;shape=mxgraph.flowchart.display;whiteSpace=wrap;" vertex="1" parent="1">
          <mxGeometry x="345.5" y="450" width="146" height="110" as="geometry" />
        </mxCell>
        <mxCell id="TxdYMe5PBgqj9NSXsRvL-16" value="" style="endArrow=classic;html=1;rounded=0;exitX=0.5;exitY=1;exitDx=0;exitDy=0;exitPerimeter=0;" edge="1" parent="1" source="TxdYMe5PBgqj9NSXsRvL-14" target="TxdYMe5PBgqj9NSXsRvL-9">
          <mxGeometry width="50" height="50" relative="1" as="geometry">
            <mxPoint x="390.5" y="640" as="sourcePoint" />
            <mxPoint x="440.5" y="590" as="targetPoint" />
          </mxGeometry>
        </mxCell>
        <mxCell id="TxdYMe5PBgqj9NSXsRvL-19" value="cetak tombol ya/tidak" style="strokeWidth=2;html=1;shape=mxgraph.flowchart.decision;whiteSpace=wrap;" vertex="1" parent="1">
          <mxGeometry x="352" y="120" width="132" height="120" as="geometry" />
        </mxCell>
        <mxCell id="TxdYMe5PBgqj9NSXsRvL-20" value="&amp;nbsp;Set status menjadi sedang melakukan count down." style="shape=parallelogram;html=1;strokeWidth=2;perimeter=parallelogramPerimeter;whiteSpace=wrap;rounded=1;arcSize=12;size=0.23;" vertex="1" parent="1">
          <mxGeometry x="325" y="300" width="177" height="80" as="geometry" />
        </mxCell>
        <mxCell id="TxdYMe5PBgqj9NSXsRvL-21" value="" style="endArrow=classic;html=1;rounded=0;exitX=0.5;exitY=1;exitDx=0;exitDy=0;exitPerimeter=0;" edge="1" parent="1" source="TxdYMe5PBgqj9NSXsRvL-19">
          <mxGeometry width="50" height="50" relative="1" as="geometry">
            <mxPoint x="420" y="390" as="sourcePoint" />
            <mxPoint x="418" y="300" as="targetPoint" />
          </mxGeometry>
        </mxCell>
        <mxCell id="TxdYMe5PBgqj9NSXsRvL-22" value="" style="endArrow=classic;html=1;rounded=0;entryX=0.5;entryY=0;entryDx=0;entryDy=0;entryPerimeter=0;exitX=0.528;exitY=1;exitDx=0;exitDy=0;exitPerimeter=0;" edge="1" parent="1" source="TxdYMe5PBgqj9NSXsRvL-20" target="TxdYMe5PBgqj9NSXsRvL-14">
          <mxGeometry width="50" height="50" relative="1" as="geometry">
            <mxPoint x="419" y="390" as="sourcePoint" />
            <mxPoint x="455.5" y="410" as="targetPoint" />
          </mxGeometry>
        </mxCell>
        <mxCell id="TxdYMe5PBgqj9NSXsRvL-23" value="Tturn off the light" style="shape=parallelogram;perimeter=parallelogramPerimeter;whiteSpace=wrap;html=1;fixedSize=1;" vertex="1" parent="1">
          <mxGeometry x="358" y="860" width="120" height="60" as="geometry" />
        </mxCell>
        <mxCell id="TxdYMe5PBgqj9NSXsRvL-24" value="" style="endArrow=classic;html=1;rounded=0;exitX=0.5;exitY=1;exitDx=0;exitDy=0;entryX=0.5;entryY=0;entryDx=0;entryDy=0;" edge="1" parent="1" source="kuNX_iD7RCXfwzJ7GgUc-9" target="TxdYMe5PBgqj9NSXsRvL-23">
          <mxGeometry width="50" height="50" relative="1" as="geometry">
            <mxPoint x="425.5" y="820" as="sourcePoint" />
            <mxPoint x="455.5" y="750" as="targetPoint" />
          </mxGeometry>
        </mxCell>
        <mxCell id="TxdYMe5PBgqj9NSXsRvL-25" value="" style="endArrow=classic;html=1;rounded=0;exitX=0.5;exitY=1;exitDx=0;exitDy=0;entryX=0.5;entryY=0;entryDx=0;entryDy=0;" edge="1" parent="1" source="TxdYMe5PBgqj9NSXsRvL-23" target="TxdYMe5PBgqj9NSXsRvL-13">
          <mxGeometry width="50" height="50" relative="1" as="geometry">
            <mxPoint x="405.5" y="800" as="sourcePoint" />
            <mxPoint x="455.5" y="750" as="targetPoint" />
          </mxGeometry>
        </mxCell>
      </root>
    </mxGraphModel>
  </diagram>
</mxfile>
